<svg preserveAspectRatio="none" overflow="visible" style="display: block;" width="24.0057" height="24" viewBox="0 0 24.0057 24" fill="none" xmlns="http://www.w3.org/2000/svg">
<g id="simple-line-icons:graduation">
<path id="Vector" d="M23.2257 16.3196V10.2694L23.6029 10.0703C23.8482 9.94275 24.0026 9.68998 24.0056 9.41325C24.0086 9.13723 23.859 8.88148 23.6168 8.74838L12.333 2.71088C12.1073 2.58713 11.8343 2.58785 11.607 2.7131L0.385136 8.7581C0.146238 8.89125 -0.00148868 9.14398 1.13157e-05 9.41813C0.00151132 9.69227 0.152261 9.94313 0.39416 10.0737L5.32503 12.6983C5.26316 12.8074 5.22491 12.9319 5.22491 13.0661V19.4126C5.22494 19.5185 5.24734 19.6231 5.29064 19.7196C5.33394 19.8162 5.39716 19.9025 5.47616 19.9729C5.63893 20.1173 7.19743 21.3814 11.9626 21.3814C16.7108 21.3814 18.3113 20.1866 18.4782 20.0505C18.6526 19.9084 18.7534 19.6954 18.7534 19.4696V12.9604C18.7534 12.855 18.7313 12.7549 18.6923 12.6641L21.7257 11.0617V16.3237C21.2809 16.584 20.9794 17.0614 20.9794 17.6134C20.9794 18.4418 21.6511 19.1134 22.4794 19.1134C23.3078 19.1134 23.9794 18.4418 23.9794 17.6134C23.9794 17.058 23.6738 16.5787 23.2257 16.3196ZM17.2534 19.0399C16.6639 19.3234 15.1039 19.8814 11.9625 19.8814C8.80126 19.8814 7.27651 19.2874 6.72489 19.0016V13.4437L11.5954 16.0365C11.7047 16.0956 11.827 16.1265 11.9513 16.1265C12.0723 16.1266 12.1915 16.0971 12.2985 16.0406L17.2534 13.4235V19.0399ZM11.9573 14.5268L2.31039 9.40427L11.9741 4.22515L21.6679 9.38927L11.9573 14.5268Z" fill="#FFA500"/>
</g>
</svg>
