<svg preserveAspectRatio="none" overflow="visible" style="display: block;" width="29.6667" height="28.3333" viewBox="0 0 29.6667 28.3333" fill="none" xmlns="http://www.w3.org/2000/svg">
<g id="Icon">
<path d="M20.1667 9.5C22.2884 9.5 24.3232 10.3429 25.8235 11.8431C27.3238 13.3434 28.1667 15.3783 28.1667 17.5V26.8333H22.8333V17.5C22.8333 16.7928 22.5524 16.1145 22.0523 15.6144C21.5522 15.1143 20.8739 14.8333 20.1667 14.8333C19.4594 14.8333 18.7811 15.1143 18.281 15.6144C17.781 16.1145 17.5 16.7928 17.5 17.5V26.8333H12.1667V17.5C12.1667 15.3783 13.0095 13.3434 14.5098 11.8431C16.0101 10.3429 18.0449 9.5 20.1667 9.5Z" stroke="#1E1E1E" stroke-width="3" stroke-linecap="round" stroke-linejoin="round"/>
<path d="M6.83333 10.8333H1.5V26.8333H6.83333V10.8333Z" stroke="#1E1E1E" stroke-width="3" stroke-linecap="round" stroke-linejoin="round"/>
<path d="M4.16667 6.83333C5.63943 6.83333 6.83333 5.63943 6.83333 4.16667C6.83333 2.69391 5.63943 1.5 4.16667 1.5C2.69391 1.5 1.5 2.69391 1.5 4.16667C1.5 5.63943 2.69391 6.83333 4.16667 6.83333Z" stroke="#1E1E1E" stroke-width="3" stroke-linecap="round" stroke-linejoin="round"/>
</g>
</svg>
