<svg preserveAspectRatio="none" overflow="visible" style="display: block;" width="20" height="22" viewBox="0 0 20 22" fill="none" xmlns="http://www.w3.org/2000/svg">
<g id="Group">
<path id="Vector" d="M9 7H3C1.89543 7 1 7.89543 1 9V19C1 20.1046 1.89543 21 3 21H9C10.1046 21 11 20.1046 11 19V9C11 7.89543 10.1046 7 9 7Z" stroke="#FFA500" stroke-width="2" stroke-linecap="round" stroke-linejoin="round"/>
<path id="Vector_2" d="M3 3C3 2.46957 3.21071 1.96086 3.58579 1.58579C3.96086 1.21071 4.46957 1 5 1H17C17.5304 1 18.0391 1.21071 18.4142 1.58579C18.7893 1.96086 19 2.46957 19 3V19C19 19.5304 18.7893 20.0391 18.4142 20.4142C18.0391 20.7893 17.5304 21 17 21H14.6M6 17H6.01" stroke="#FFA500" stroke-width="2" stroke-linecap="round" stroke-linejoin="round"/>
</g>
</svg>
